<?xml version="1.0" standalone="no"?>
<!DOCTYPE svg PUBLIC "-//W3C//DTD SVG 20010904//EN"
 "http://www.w3.org/TR/2001/REC-SVG-20010904/DTD/svg10.dtd">
<svg version="1.0" xmlns="http://www.w3.org/2000/svg"
 width="438.000000pt" height="147.000000pt" viewBox="0 0 438.000000 147.000000"
 preserveAspectRatio="xMidYMid meet">

<g transform="translate(0.000000,147.000000) scale(0.100000,-0.100000)"
fill="#000000" stroke="none">
<path d="M300 1103 c8 -3 23 -12 33 -21 15 -14 17 -42 17 -317 0 -275 -2 -303
-17 -317 -10 -9 -25 -18 -33 -21 -8 -3 94 -6 228 -6 l242 -1 0 93 0 92 -21
-43 c-38 -77 -122 -132 -201 -132 l-28 0 0 166 0 167 33 -7 c40 -8 76 -33 105
-76 l22 -33 0 119 0 119 -19 -30 c-29 -47 -65 -75 -105 -82 l-36 -6 0 168 0
168 48 -7 c69 -9 131 -52 170 -116 l32 -54 0 92 0 92 -242 -1 c-134 0 -236 -3
-228 -6z"/>
<path d="M870 1095 c-41 -7 -77 -13 -80 -14 -2 0 6 -8 18 -17 22 -15 22 -17
22 -310 0 -281 -1 -295 -20 -314 l-20 -20 227 0 c209 0 226 1 205 16 -22 15
-22 19 -22 234 0 143 -4 221 -11 225 -5 4 -48 1 -95 -5 -85 -12 -85 -12 -65
-32 20 -18 21 -30 21 -206 0 -148 -3 -192 -14 -208 -12 -15 -18 -17 -33 -8
-17 10 -18 37 -23 340 -4 282 -7 329 -20 330 -8 1 -49 -4 -90 -11z"/>
<path d="M1075 1085 c-74 -73 27 -173 103 -102 37 34 26 88 -25 115 -32 18
-51 15 -78 -13z"/>
<path d="M2112 1099 c-56 -11 -120 -47 -146 -82 -25 -33 -26 -99 -3 -143 20
-38 94 -107 194 -183 103 -77 138 -120 138 -172 0 -56 -30 -82 -103 -90 l-57
-6 56 -2 c111 -2 212 47 248 123 20 39 21 50 11 88 -17 63 -49 99 -163 185
-122 93 -155 127 -163 170 -13 68 10 99 86 114 34 7 34 7 -10 7 -25 0 -64 -4
-88 -9z"/>
<path d="M2380 1101 c-14 -5 -50 -6 -80 -4 l-55 4 41 -19 c46 -22 90 -73 110
-129 13 -37 13 -34 14 60 0 53 -1 97 -2 96 -2 -1 -14 -4 -28 -8z"/>
<path d="M1406 982 c-14 -22 -98 -72 -120 -72 -21 0 -21 -3 -16 -216 l5 -216
33 -29 c39 -35 102 -39 160 -11 l37 17 -30 3 c-16 2 -34 8 -40 13 -6 6 -12
116 -15 267 -3 151 -9 251 -14 244z"/>
<path d="M2614 969 c-22 -24 -86 -59 -109 -59 -13 0 -15 -26 -14 -192 0 -123
4 -205 12 -227 24 -70 100 -92 183 -55 38 17 39 18 12 22 -55 7 -58 24 -58
286 1 131 -1 240 -3 242 -2 2 -12 -5 -23 -17z"/>
<path d="M1635 891 c-126 -58 -176 -218 -109 -349 37 -72 93 -113 163 -120 78
-7 118 5 167 50 50 46 59 70 13 36 -67 -50 -153 -15 -198 81 -22 47 -26 69
-25 141 0 109 23 163 70 168 27 3 33 -2 48 -33 10 -20 20 -61 23 -91 l6 -54
63 0 c73 0 77 6 45 68 -55 108 -164 150 -266 103z"/>
<path d="M2903 903 c9 -2 23 -2 30 0 6 3 -1 5 -18 5 -16 0 -22 -2 -12 -5z"/>
<path d="M2973 903 c9 -2 23 -2 30 0 6 3 -1 5 -18 5 -16 0 -22 -2 -12 -5z"/>
<path d="M3763 891 c-29 -14 -48 -31 -60 -55 -26 -57 -7 -102 74 -173 175
-154 191 -179 137 -222 l-27 -21 27 0 c37 0 99 34 126 67 18 22 21 37 17 73
-5 46 -16 59 -176 200 -43 39 -51 51 -51 81 0 42 15 59 52 59 63 0 97 -32 130
-120 l16 -45 1 80 1 80 -42 2 c-24 1 -74 4 -113 8 -57 5 -78 2 -112 -14z"/>
<path d="M2828 880 c-74 -39 -102 -116 -58 -160 28 -28 81 -26 108 3 27 29 28
64 2 97 -23 29 -25 51 -8 68 18 18 -2 14 -44 -8z"/>
<path d="M3159 883 c30 -26 232 -453 226 -478 -3 -11 26 45 65 124 66 137 95
206 46 113 l-22 -43 -72 150 -71 151 -97 0 c-93 0 -95 -1 -75 -17z"/>
<path d="M3555 878 c22 -17 26 -27 22 -53 l-5 -33 40 44 c22 24 55 48 72 53
24 7 10 9 -63 10 l-94 1 28 -22z"/>
<path d="M3073 866 c35 -32 33 -71 -3 -97 -14 -11 -81 -39 -150 -64 -92 -33
-134 -54 -158 -79 -61 -60 -51 -155 19 -192 40 -20 110 -20 150 0 39 20 39 20
39 0 0 -15 9 -16 72 -10 39 3 81 9 94 12 22 6 22 6 3 25 -17 17 -19 35 -19
184 0 178 -8 213 -53 236 -18 10 -17 7 6 -15z m-103 -281 l0 -125 -28 0 c-48
0 -67 31 -67 112 0 68 1 71 37 104 21 19 42 34 48 34 6 0 10 -47 10 -125z"/>
<path d="M1978 663 c-50 -55 -42 -123 22 -176 35 -30 93 -57 119 -57 14 1 14
2 -1 11 -25 14 -22 39 7 79 56 76 14 170 -77 170 -35 0 -49 -6 -70 -27z"/>
<path d="M3733 608 c-12 -6 -27 -23 -33 -38 -21 -50 6 -97 72 -131 39 -20 77
-27 46 -8 -23 13 -23 25 2 56 29 37 26 87 -6 112 -29 23 -48 25 -81 9z"/>
<path d="M3456 349 c-32 -25 -35 -70 -6 -106 26 -33 25 -51 -2 -56 l-23 -4 23
-2 c59 -3 132 60 132 115 0 29 -44 74 -73 74 -13 0 -36 -9 -51 -21z"/>
<path d="M3351 324 c0 -11 3 -14 6 -6 3 7 2 16 -1 19 -3 4 -6 -2 -5 -13z"/>
<path d="M3351 274 c0 -11 3 -14 6 -6 3 7 2 16 -1 19 -3 4 -6 -2 -5 -13z"/>
<path d="M3360 243 c0 -5 10 -18 23 -29 l22 -19 -20 25 c-11 14 -21 27 -22 29
-2 2 -3 0 -3 -6z"/>
</g>
</svg>
